<mxfile host="app.diagrams.net" modified="2024-06-17T09:02:50.473Z" agent="Mozilla/5.0 (Windows NT 10.0; Win64; x64) AppleWebKit/537.36 (KHTML, like Gecko) Chrome/126.0.0.0 Safari/537.36" etag="e2SSykt0mlTi9BYHLYdH" version="24.4.10" type="google">
  <diagram name="Page-1" id="EiQHPnZWbAOL3A7C1vi8">
    <mxGraphModel grid="1" page="1" gridSize="10" guides="1" tooltips="1" connect="1" arrows="1" fold="1" pageScale="1" pageWidth="700" pageHeight="1000" math="0" shadow="0">
      <root>
        <mxCell id="0" />
        <mxCell id="1" parent="0" />
        <mxCell id="4pFMJGTHoJNY8gUiROSh-1" value="&lt;b&gt;Left 4 Dead 2.exe&lt;/b&gt;&lt;br&gt;25087eb5799f7a887e5d4dbbfdbdcbed8862d743" style="rounded=1;whiteSpace=wrap;html=1;fillColor=#dae8fc;strokeColor=#6c8ebf;" vertex="1" parent="1">
          <mxGeometry x="40" y="360" width="320" height="40" as="geometry" />
        </mxCell>
        <mxCell id="4pFMJGTHoJNY8gUiROSh-2" value="&lt;b&gt;Unikey.exe&lt;/b&gt;&lt;br&gt;9135CD7CEBEFDB79EF6FC21D5FDEA5B170689508" style="rounded=1;whiteSpace=wrap;html=1;fillColor=#dae8fc;strokeColor=#6c8ebf;" vertex="1" parent="1">
          <mxGeometry x="439" y="160" width="320" height="40" as="geometry" />
        </mxCell>
        <mxCell id="4pFMJGTHoJNY8gUiROSh-3" value="&lt;b&gt;Wallpaper.jpg&lt;/b&gt;&lt;br&gt;f89518645d3cd3d93c0d441da0b778382614e712" style="rounded=1;whiteSpace=wrap;html=1;fillColor=#dae8fc;strokeColor=#6c8ebf;" vertex="1" parent="1">
          <mxGeometry x="440" y="360" width="320" height="40" as="geometry" />
        </mxCell>
        <mxCell id="4pFMJGTHoJNY8gUiROSh-4" value="&lt;b&gt;tmp.exe&lt;/b&gt;&lt;br&gt;25087eb5799f7a887e5d4dbbfdbdcbed8862d743" style="rounded=1;whiteSpace=wrap;html=1;fillColor=#dae8fc;strokeColor=#6c8ebf;" vertex="1" parent="1">
          <mxGeometry x="440" y="480" width="320" height="40" as="geometry" />
        </mxCell>
        <mxCell id="4pFMJGTHoJNY8gUiROSh-8" value="&lt;b&gt;Location:&amp;nbsp;&lt;/b&gt;&quot;%TEMP%\check.dll&quot;" style="rounded=1;whiteSpace=wrap;html=1;fillColor=#dae8fc;strokeColor=#6c8ebf;align=center;" vertex="1" parent="1">
          <mxGeometry x="839" y="120" width="320" height="40" as="geometry" />
        </mxCell>
        <mxCell id="4pFMJGTHoJNY8gUiROSh-9" value="&lt;b&gt;Autorun:&amp;nbsp;HKEY_CURRENT_USER&lt;/b&gt;&lt;br&gt;&quot;SOFTWARE\Microsoft\Windows\CurrentVersion\Run&quot;&lt;div&gt;AVScript:&amp;nbsp;&lt;span style=&quot;background-color: initial;&quot;&gt;&quot;%TEMP%\\tmp.exe&quot;&lt;/span&gt;&lt;/div&gt;" style="rounded=1;whiteSpace=wrap;html=1;fillColor=#dae8fc;strokeColor=#6c8ebf;" vertex="1" parent="1">
          <mxGeometry x="839" y="200" width="321" height="80" as="geometry" />
        </mxCell>
        <mxCell id="4pFMJGTHoJNY8gUiROSh-11" value="&lt;b&gt;Unikey.exe&lt;/b&gt;&lt;br&gt;9135CD7CEBEFDB79EF6FC21D5FDEA5B170689508" style="rounded=1;whiteSpace=wrap;html=1;fillColor=#dae8fc;strokeColor=#6c8ebf;" vertex="1" parent="1">
          <mxGeometry x="840" y="480" width="320" height="40" as="geometry" />
        </mxCell>
        <mxCell id="4pFMJGTHoJNY8gUiROSh-12" value="&lt;b&gt;Location:&amp;nbsp;&lt;/b&gt;&quot;%TEMP%\\Wallpaper.jpg&quot;" style="rounded=1;whiteSpace=wrap;html=1;fillColor=#dae8fc;strokeColor=#6c8ebf;align=center;" vertex="1" parent="1">
          <mxGeometry x="839" y="320" width="320" height="40" as="geometry" />
        </mxCell>
        <mxCell id="4pFMJGTHoJNY8gUiROSh-13" value="&lt;b&gt;Location:&amp;nbsp;&lt;/b&gt;&quot;%TEMP%\\tmp.exe&quot;" style="rounded=1;whiteSpace=wrap;html=1;fillColor=#dae8fc;strokeColor=#6c8ebf;align=center;" vertex="1" parent="1">
          <mxGeometry x="840" y="480" width="320" height="40" as="geometry" />
        </mxCell>
        <mxCell id="4pFMJGTHoJNY8gUiROSh-20" value="" style="endArrow=classic;html=1;rounded=0;entryX=0;entryY=0.5;entryDx=0;entryDy=0;" edge="1" parent="1" target="4pFMJGTHoJNY8gUiROSh-12">
          <mxGeometry width="50" height="50" relative="1" as="geometry">
            <mxPoint x="760" y="379.5" as="sourcePoint" />
            <mxPoint x="840" y="379.5" as="targetPoint" />
          </mxGeometry>
        </mxCell>
        <mxCell id="4pFMJGTHoJNY8gUiROSh-21" value="" style="endArrow=classic;html=1;rounded=0;entryX=0;entryY=0.5;entryDx=0;entryDy=0;" edge="1" parent="1">
          <mxGeometry width="50" height="50" relative="1" as="geometry">
            <mxPoint x="760" y="499.5" as="sourcePoint" />
            <mxPoint x="840" y="499.5" as="targetPoint" />
          </mxGeometry>
        </mxCell>
        <mxCell id="4pFMJGTHoJNY8gUiROSh-22" value="" style="endArrow=classic;html=1;rounded=0;entryX=0;entryY=0.5;entryDx=0;entryDy=0;" edge="1" parent="1" target="4pFMJGTHoJNY8gUiROSh-8">
          <mxGeometry width="50" height="50" relative="1" as="geometry">
            <mxPoint x="759" y="179.5" as="sourcePoint" />
            <mxPoint x="839" y="179.5" as="targetPoint" />
          </mxGeometry>
        </mxCell>
        <mxCell id="4pFMJGTHoJNY8gUiROSh-23" value="" style="endArrow=classic;html=1;rounded=0;entryX=0;entryY=0.5;entryDx=0;entryDy=0;exitX=1;exitY=0.5;exitDx=0;exitDy=0;" edge="1" parent="1" source="4pFMJGTHoJNY8gUiROSh-2">
          <mxGeometry width="50" height="50" relative="1" as="geometry">
            <mxPoint x="759" y="259.5" as="sourcePoint" />
            <mxPoint x="839" y="220" as="targetPoint" />
          </mxGeometry>
        </mxCell>
        <mxCell id="KFP1_HrMysq1nrGucyQy-1" value="&lt;b&gt;check.dll&lt;/b&gt;&lt;br&gt;d4d84bcfe756e87033995d7e1531bf731f00d38b" style="rounded=1;whiteSpace=wrap;html=1;fillColor=#dae8fc;strokeColor=#6c8ebf;" vertex="1" parent="1">
          <mxGeometry x="439" y="160" width="320" height="40" as="geometry" />
        </mxCell>
        <mxCell id="KFP1_HrMysq1nrGucyQy-2" value="&lt;b&gt;Listen&lt;/b&gt;&lt;br&gt;&lt;b&gt;(IP: `&quot;192.168.137.110&quot;`, PORT: `&quot;27015&quot;`)&lt;/b&gt;" style="rounded=1;whiteSpace=wrap;html=1;fillColor=#dae8fc;strokeColor=#6c8ebf;align=center;" vertex="1" parent="1">
          <mxGeometry x="840" y="400" width="320" height="40" as="geometry" />
        </mxCell>
        <mxCell id="KFP1_HrMysq1nrGucyQy-3" value="" style="endArrow=classic;html=1;rounded=0;entryX=0;entryY=0.5;entryDx=0;entryDy=0;exitX=1;exitY=0.5;exitDx=0;exitDy=0;" edge="1" parent="1" source="4pFMJGTHoJNY8gUiROSh-3">
          <mxGeometry width="50" height="50" relative="1" as="geometry">
            <mxPoint x="761" y="459.5" as="sourcePoint" />
            <mxPoint x="840" y="420" as="targetPoint" />
          </mxGeometry>
        </mxCell>
        <mxCell id="KFP1_HrMysq1nrGucyQy-4" value="" style="endArrow=classic;html=1;rounded=0;entryX=0;entryY=0.5;entryDx=0;entryDy=0;exitX=1;exitY=0.5;exitDx=0;exitDy=0;" edge="1" parent="1" source="4pFMJGTHoJNY8gUiROSh-1">
          <mxGeometry width="50" height="50" relative="1" as="geometry">
            <mxPoint x="359" y="140" as="sourcePoint" />
            <mxPoint x="439" y="180" as="targetPoint" />
          </mxGeometry>
        </mxCell>
        <mxCell id="KFP1_HrMysq1nrGucyQy-5" value="" style="endArrow=classic;html=1;rounded=0;entryX=0;entryY=0.5;entryDx=0;entryDy=0;exitX=1;exitY=0.5;exitDx=0;exitDy=0;" edge="1" parent="1" source="4pFMJGTHoJNY8gUiROSh-1">
          <mxGeometry width="50" height="50" relative="1" as="geometry">
            <mxPoint x="360" y="580" as="sourcePoint" />
            <mxPoint x="439" y="380" as="targetPoint" />
          </mxGeometry>
        </mxCell>
        <mxCell id="KFP1_HrMysq1nrGucyQy-6" value="" style="endArrow=classic;html=1;rounded=0;entryX=0;entryY=0.5;entryDx=0;entryDy=0;" edge="1" parent="1">
          <mxGeometry width="50" height="50" relative="1" as="geometry">
            <mxPoint x="360" y="380" as="sourcePoint" />
            <mxPoint x="440" y="499" as="targetPoint" />
          </mxGeometry>
        </mxCell>
      </root>
    </mxGraphModel>
  </diagram>
</mxfile>
